#!OML:ASF F:\VICON\USERDATA\INSTALL\rory3\rory3.ASF
:FULLY-SPECIFIED
:DEGREES
391
root 1.39473 22.1334 2.03429 -170.589 -2.96157 -179.902
lowerback 7.85301 0.417204 -2.84058
upperback 1.02543 0.234831 -0.0945891
thorax -3.35457 0.120312 1.47586
lowerneck -19.1709 2.36488 -8.71823
upperneck 38.8717 2.46797 1.97523
head 17.3236 -1.22662 2.55822
rclavicle 5.56597e-015 4.17448e-015
rhumerus -1.84302 2.98531 -79.7612
rradius 62.3817
rwrist -14.7914
rhand -26.3655 13.8129
rfingers 7.12502
rthumb 0.192777 -16.1667
lclavicle 5.56597e-015 4.17448e-015
lhumerus 21.4953 -8.48381 82.8556
lradius 65.4871
lwrist 25.7178
lhand -19.1987 35.4344
lfingers 7.12502
lthumb 7.11337 65.2949
rfemur -49.1976 -12.0019 18.6979
rtibia 77.3635
rfoot -10.3903 6.34397
rtoes -12.0863
lfemur -34.2463 -4.93342 -23.493
ltibia 36.2959
lfoot -17.2245 1.92991
ltoes 0.0761798
392
root 1.41159 22.121 2.0149 -170.604 -3.07272 -180.003
lowerback 7.88931 0.411025 -2.98956
upperback 0.987156 0.212731 -0.101668
thorax -3.41408 0.112906 1.55451
lowerneck -19.2473 2.37585 -8.80991
upperneck 38.9787 2.5129 1.97932
head 17.3975 -1.23374 2.58603
rclavicle 7.95139e-016 -4.17448e-015
rhumerus -2.0677 2.87562 -79.8192
rradius 62.6176
rwrist -14.991
rhand -26.1927 13.7455
rfingers 7.12502
rthumb 0.35965 -16.2339
lclavicle 7.95139e-016 -4.17448e-015
lhumerus 21.3275 -8.41671 83.0169
lradius 65.5405
lwrist 25.5901
lhand -19.1021 35.3675
lfingers 7.12502
lthumb 7.20662 65.2248
rfemur -49.0433 -11.6444 18.7534
rtibia 76.9118
rfoot -10.3594 6.79933
rtoes -11.3252
lfemur -34.2192 -4.91482 -23.5783
ltibia 36.3734
lfoot -17.3357 1.8407
ltoes 0.183471
393
root 1.42771 22.1147 1.99438 -170.602 -3.24454 -180.14
lowerback 7.83932 0.388964 -3.14271
upperback 0.977383 0.170866 -0.134294
thorax -3.39468 0.0938436 1.61135
lowerneck -19.241 2.36961 -8.91483
upperneck 39.0144 2.50288 2.06444
head 17.4118 -1.24507 2.64148
rclavicle -9.44227e-016 9.34288e-015
rhumerus -2.32981 2.70057 -79.8828
rradius 62.8689
rwrist -15.1732
rhand -26.0082 13.8948
rfingers 7.12502
rthumb 0.537839 -16.0842
lclavicle -9.44227e-016 9.34288e-015
lhumerus 21.2746 -8.4215 83.0488
lradius 65.5503
lwrist 25.5678
lhand -18.9819 35.3853
lfingers 7.12502
lthumb 7.32265 65.2386
rfemur -48.9201 -11.441 18.834
rtibia 76.4688
rfoot -10.2995 6.99689
rtoes -11.5596
lfemur -34.1749 -4.98431 -23.6831
ltibia 36.4223
lfoot -17.4866 1.72505
ltoes 0.922961
394
root 1.44024 22.1189 1.97218 -170.611 -3.51622 -180.159
lowerback 7.78771 0.325478 -3.08951
upperback 0.955852 0.0929449 -0.16259
thorax -3.38398 0.0550426 1.56042
lowerneck -19.0641 2.38346 -8.86724
upperneck 38.9362 2.51056 1.99538
head 17.3255 -1.24005 2.59872
rclavicle -9.83984e-015 -8.94531e-015
rhumerus -2.5658 2.57443 -79.98
rradius 62.9646
rwrist -15.1818
rhand -26.0773 14.2597
rfingers 7.12502
rthumb 0.471053 -15.7195
lclavicle -9.83984e-015 -8.94531e-015
lhumerus 21.1729 -8.42916 83.0857
lradius 65.5454
lwrist 25.5302
lhand -18.9021 35.2839
lfingers 7.12502
lthumb 7.39961 65.1345
rfemur -48.7809 -11.3394 19.0724
rtibia 76.0226
rfoot -10.5116 7.00445
rtoes -12.8442
lfemur -34.0803 -5.0844 -23.6691
ltibia 36.4355
lfoot -17.6308 1.56458
ltoes 1.51509
395
root 1.45423 22.1193 1.95043 -170.647 -3.80557 -180.155
lowerback 7.76778 0.261756 -2.99528
upperback 0.953981 0.0162938 -0.188852
thorax -3.37086 0.0156085 1.48835
lowerneck -18.8894 2.37815 -8.84819
upperneck 38.8116 2.49371 1.97758
head 17.2145 -1.23472 2.58046
rclavicle 1.71949e-014 -2.78299e-015
rhumerus -2.73487 2.5077 -80.0479
rradius 62.99
rwrist -15.0985
rhand -26.2002 14.3668
rfingers 7.12502
rthumb 0.352352 -15.6127
lclavicle 1.71949e-014 -2.78299e-015
lhumerus 21.0733 -8.44732 83.1029
lradius 65.5162
lwrist 25.5439
lhand -18.7779 35.1998
lfingers 7.12502
lthumb 7.51952 65.0462
rfemur -48.6223 -11.2374 19.3195
rtibia 75.5719
rfoot -10.804 7.06822
rtoes -13.2941
lfemur -33.9052 -5.12942 -23.654
ltibia 36.3879
lfoot -17.734 1.44393
ltoes 1.07345
396
root 1.4693 22.1208 1.9322 -170.671 -4.01814 -180.186
lowerback 7.76243 0.256314 -2.99309
upperback 0.961697 0.00883739 -0.20018
thorax -3.35952 0.0114297 1.47618
lowerneck -18.7207 2.36607 -8.87243
upperneck 38.7089 2.44758 2.04865
head 17.116 -1.23561 2.60538
rclavicle 2.38542e-015 -4.37326e-015
rhumerus -2.98249 2.43313 -80.0585
rradius 63.2276
rwrist -15.1181
rhand -26.3321 13.8954
rfingers 7.12502
rthumb 0.225005 -16.0842
lclavicle 2.38542e-015 -4.37326e-015
lhumerus 21.0735 -8.52588 83.1717
lradius 65.4339
lwrist 25.5396
lhand -18.7178 35.2682
lfingers 7.12502
lthumb 7.57756 65.1124
rfemur -48.505 -11.0915 19.5317
rtibia 75.0761
rfoot -10.9836 7.06697
rtoes -13.5551
lfemur -33.7443 -5.12426 -23.6787
ltibia 36.2775
lfoot -17.7207 1.35546
ltoes 0.511908
